<svg xmlns="http://www.w3.org/2000/svg" viewBox="0 0 32 32">
  <defs>
    <linearGradient id="cap-gradient" x1="0%" y1="0%" x2="100%" y2="100%">
      <stop offset="0%" style="stop-color:#6366f1"/>
      <stop offset="100%" style="stop-color:#ec4899"/>
    </linearGradient>
  </defs>
  <!-- Background -->
  <rect width="32" height="32" rx="8" fill="url(#cap-gradient)"/>
  <!-- Cap shape - simplified baseball cap -->
  <path d="M6 18 C6 14 10 10 16 10 C22 10 26 14 26 18 L26 20 C26 21 25 22 24 22 L8 22 C7 22 6 21 6 20 Z" fill="white"/>
  <!-- Cap brim -->
  <path d="M4 20 C4 19 5 18 6 18 L26 18 C27 18 28 19 28 20 C28 21 27 22 26 22 L6 22 C5 22 4 21 4 20 Z" fill="white" opacity="0.9"/>
  <!-- Cap button on top -->
  <circle cx="16" cy="10" r="2" fill="white"/>
</svg>
